REM DIRINDEX 1\2\4,1\2\5,1\2\6,1\3\7,1\3\8,1\3\9,1\3\10
REM DIRNAME cjc058,folder01,folder02,folder03,folder04,folder05,folder06,folder07,folder08,folder09
TITLE ""
FILE "a_41.mp3" MP3
  TRACK 01 AUDIO
    TITLE "0:"
    INDEX 01 00:00:00
  TRACK 02 AUDIO
    TITLE "6:cjc058_0921"
    INDEX 01 00:00:13
  TRACK 03 AUDIO
    TITLE "0:"
    INDEX 01 00:03:68
  TRACK 04 AUDIO
    TITLE "4:cjc058_0922"
    INDEX 01 00:04:40
  TRACK 05 AUDIO
    TITLE "0:"
    INDEX 01 00:06:10
  TRACK 06 AUDIO
    TITLE "5:cjc058_0923"
    INDEX 01 00:06:45
  TRACK 07 AUDIO
    TITLE "0:"
    INDEX 01 00:09:71
  TRACK 08 AUDIO
    TITLE "4:cjc058_0924"
    INDEX 01 00:11:01
  TRACK 09 AUDIO
    TITLE "0:"
    INDEX 01 00:12:16
  TRACK 10 AUDIO
    TITLE "5:cjc058_0925"
    INDEX 01 00:12:52
  TRACK 11 AUDIO
    TITLE "0:"
    INDEX 01 00:16:53
  TRACK 12 AUDIO
    TITLE "4:cjc058_0926"
    INDEX 01 00:17:63
  TRACK 13 AUDIO
    TITLE "0:"
    INDEX 01 00:19:11
  TRACK 14 AUDIO
    TITLE "5:cjc058_0927"
    INDEX 01 00:19:44
  TRACK 15 AUDIO
    TITLE "0:"
    INDEX 01 00:22:62
  TRACK 16 AUDIO
    TITLE "4:cjc058_0928"
    INDEX 01 00:23:71
  TRACK 17 AUDIO
    TITLE "0:"
    INDEX 01 00:25:37
  TRACK 18 AUDIO
    TITLE "5:cjc058_0929"
    INDEX 01 00:25:72
  TRACK 19 AUDIO
    TITLE "0:"
    INDEX 01 00:28:47
  TRACK 20 AUDIO
    TITLE "4:cjc058_0930"
    INDEX 01 00:29:58
  TRACK 21 AUDIO
    TITLE "0:"
    INDEX 01 00:31:16
  TRACK 22 AUDIO
    TITLE "5:cjc058_0931"
    INDEX 01 00:31:51
  TRACK 23 AUDIO
    TITLE "0:"
    INDEX 01 00:33:30
  TRACK 24 AUDIO
    TITLE "4:cjc058_0932"
    INDEX 01 00:34:40
  TRACK 25 AUDIO
    TITLE "0:"
    INDEX 01 00:35:70
  TRACK 26 AUDIO
    TITLE "5:cjc058_0933"
    INDEX 01 00:36:31
  TRACK 27 AUDIO
    TITLE "0:"
    INDEX 01 00:39:45
  TRACK 28 AUDIO
    TITLE "4:cjc058_0934"
    INDEX 01 00:40:54
  TRACK 29 AUDIO
    TITLE "0:"
    INDEX 01 00:42:08
  TRACK 30 AUDIO
    TITLE "5:cjc058_0935"
    INDEX 01 00:42:43
  TRACK 31 AUDIO
    TITLE "0:"
    INDEX 01 00:45:12
  TRACK 32 AUDIO
    TITLE "4:cjc058_0936"
    INDEX 01 00:46:21
  TRACK 33 AUDIO
    TITLE "0:"
    INDEX 01 00:47:42
  TRACK 34 AUDIO
    TITLE "5:cjc058_0937"
    INDEX 01 00:48:00
  TRACK 35 AUDIO
    TITLE "0:"
    INDEX 01 00:50:42
  TRACK 36 AUDIO
    TITLE "4:cjc058_0938"
    INDEX 01 00:51:50
  TRACK 37 AUDIO
    TITLE "0:"
    INDEX 01 00:53:17
  TRACK 38 AUDIO
    TITLE "5:cjc058_0939"
    INDEX 01 00:53:53
  TRACK 39 AUDIO
    TITLE "0:"
    INDEX 01 00:56:25
  TRACK 40 AUDIO
    TITLE "4:cjc058_0940"
    INDEX 01 00:57:35
  TRACK 41 AUDIO
    TITLE "0:"
    INDEX 01 00:59:00
  TRACK 42 AUDIO
    TITLE "5:cjc058_0941"
    INDEX 01 00:59:32
  TRACK 43 AUDIO
    TITLE "0:"
    INDEX 01 01:00:70
  TRACK 44 AUDIO
    TITLE "4:cjc058_0942"
    INDEX 01 01:02:06
  TRACK 45 AUDIO
    TITLE "0:"
    INDEX 01 01:03:39
  TRACK 46 AUDIO
    TITLE "5:cjc058_0943"
    INDEX 01 01:04:00
  TRACK 47 AUDIO
    TITLE "0:"
    INDEX 01 01:07:25
  TRACK 48 AUDIO
    TITLE "4:cjc058_0944"
    INDEX 01 01:08:36
  TRACK 49 AUDIO
    TITLE "0:"
    INDEX 01 01:10:04
  TRACK 50 AUDIO
    TITLE "5:cjc058_0945"
    INDEX 01 01:10:39
  TRACK 51 AUDIO
    TITLE "0:"
    INDEX 01 01:11:62
  TRACK 52 AUDIO
    TITLE "4:cjc058_0946"
    INDEX 01 01:12:71
  TRACK 53 AUDIO
    TITLE "0:"
    INDEX 01 01:14:59
  TRACK 54 AUDIO
    TITLE "5:cjc058_0947"
    INDEX 01 01:15:17
  TRACK 55 AUDIO
    TITLE "0:"
    INDEX 01 01:16:69
  TRACK 56 AUDIO
    TITLE "4:cjc058_0948"
    INDEX 01 01:18:06
  TRACK 57 AUDIO
    TITLE "0:"
    INDEX 01 01:19:70
  TRACK 58 AUDIO
    TITLE "5:cjc058_0949"
    INDEX 01 01:20:32
  TRACK 59 AUDIO
    TITLE "0:"
    INDEX 01 01:22:03
  TRACK 60 AUDIO
    TITLE "4:cjc058_0950"
    INDEX 01 01:23:11
  TRACK 61 AUDIO
    TITLE "0:"
    INDEX 01 01:24:61
  TRACK 62 AUDIO
    TITLE "5:cjc058_0951"
    INDEX 01 01:25:19
  TRACK 63 AUDIO
    TITLE "0:"
    INDEX 01 01:26:50
  TRACK 64 AUDIO
    TITLE "4:cjc058_0952"
    INDEX 01 01:27:61
  TRACK 65 AUDIO
    TITLE "0:"
    INDEX 01 01:29:37
  TRACK 66 AUDIO
    TITLE "5:cjc058_0953"
    INDEX 01 01:29:70
  TRACK 67 AUDIO
    TITLE "0:"
    INDEX 01 01:31:38
  TRACK 68 AUDIO
    TITLE "4:cjc058_0954"
    INDEX 01 01:32:45
  TRACK 69 AUDIO
    TITLE "0:"
    INDEX 01 01:34:01
  TRACK 70 AUDIO
    TITLE "5:cjc058_0955"
    INDEX 01 01:34:38
  TRACK 71 AUDIO
    TITLE "0:"
    INDEX 01 01:36:11
  TRACK 72 AUDIO
    TITLE "4:cjc058_0956"
    INDEX 01 01:37:21
  TRACK 73 AUDIO
    TITLE "0:"
    INDEX 01 01:38:43
  TRACK 74 AUDIO
    TITLE "5:cjc058_0957"
    INDEX 01 01:39:02
  TRACK 75 AUDIO
    TITLE "0:"
    INDEX 01 01:41:10
  TRACK 76 AUDIO
    TITLE "4:cjc058_0958"
    INDEX 01 01:42:22
  TRACK 77 AUDIO
    TITLE "0:"
    INDEX 01 01:43:51
  TRACK 78 AUDIO
    TITLE "5:cjc058_0959"
    INDEX 01 01:44:09
  TRACK 79 AUDIO
    TITLE "0:"
    INDEX 01 01:46:55
  TRACK 80 AUDIO
    TITLE "4:cjc058_0960"
    INDEX 01 01:47:62
  TRACK 81 AUDIO
    TITLE "0:"
    INDEX 01 01:49:43
  TRACK 82 AUDIO
    TITLE "5:cjc058_0961"
    INDEX 01 01:50:02
  TRACK 83 AUDIO
    TITLE "0:"
    INDEX 01 01:51:58
  TRACK 84 AUDIO
    TITLE "4:cjc058_0962"
    INDEX 01 01:52:69
  TRACK 85 AUDIO
    TITLE "0:"
    INDEX 01 01:54:42
  TRACK 86 AUDIO
    TITLE "5:cjc058_0963"
    INDEX 01 01:55:03
  TRACK 87 AUDIO
    TITLE "0:"
    INDEX 01 01:57:09
  TRACK 88 AUDIO
    TITLE "4:cjc058_0964"
    INDEX 01 01:58:17
  TRACK 89 AUDIO
    TITLE "0:"
    INDEX 01 02:00:02
  TRACK 90 AUDIO
    TITLE "5:cjc058_0965"
    INDEX 01 02:00:35
  TRACK 91 AUDIO
    TITLE "0:"
    INDEX 01 02:03:24
  TRACK 92 AUDIO
    TITLE "4:cjc058_0966"
    INDEX 01 02:04:33
  TRACK 93 AUDIO
    TITLE "0:"
    INDEX 01 02:05:56
  TRACK 94 AUDIO
    TITLE "5:cjc058_0967"
    INDEX 01 02:06:14
  TRACK 95 AUDIO
    TITLE "0:"
    INDEX 01 02:09:03
  TRACK 96 AUDIO
    TITLE "4:cjc058_0968"
    INDEX 01 02:10:10
  TRACK 97 AUDIO
    TITLE "0:"
    INDEX 01 02:11:27
  TRACK 98 AUDIO
    TITLE "5:cjc058_0969"
    INDEX 01 02:11:63
  TRACK 99 AUDIO
    TITLE "0:"
    INDEX 01 02:14:06
  TRACK 100 AUDIO
    TITLE "4:cjc058_0970"
    INDEX 01 02:15:15
  TRACK 101 AUDIO
    TITLE "0:"
    INDEX 01 02:16:28
  TRACK 102 AUDIO
    TITLE "5:cjc058_0971"
    INDEX 01 02:16:62
  TRACK 103 AUDIO
    TITLE "0:"
    INDEX 01 02:19:23
  TRACK 104 AUDIO
    TITLE "4:cjc058_0972"
    INDEX 01 02:20:32
  TRACK 105 AUDIO
    TITLE "0:"
    INDEX 01 02:21:57
  TRACK 106 AUDIO
    TITLE "5:cjc058_0973"
    INDEX 01 02:22:17
  TRACK 107 AUDIO
    TITLE "0:"
    INDEX 01 02:23:34
  TRACK 108 AUDIO
    TITLE "4:cjc058_0974"
    INDEX 01 02:24:46
  TRACK 109 AUDIO
    TITLE "0:"
    INDEX 01 02:26:25
  TRACK 110 AUDIO
    TITLE "5:cjc058_0975"
    INDEX 01 02:26:60
  TRACK 111 AUDIO
    TITLE "0:"
    INDEX 01 02:29:37
  TRACK 112 AUDIO
    TITLE "4:cjc058_0976"
    INDEX 01 02:30:46
  TRACK 113 AUDIO
    TITLE "0:"
    INDEX 01 02:32:27
  TRACK 114 AUDIO
    TITLE "5:cjc058_0977"
    INDEX 01 02:32:59
  TRACK 115 AUDIO
    TITLE "0:"
    INDEX 01 02:35:22
  TRACK 116 AUDIO
    TITLE "4:cjc058_0978"
    INDEX 01 02:36:33
  TRACK 117 AUDIO
    TITLE "0:"
    INDEX 01 02:39:00
  TRACK 118 AUDIO
    TITLE "5:cjc058_0979"
    INDEX 01 02:39:35
  TRACK 119 AUDIO
    TITLE "0:"
    INDEX 01 02:42:10
